# Blender v2.79 (sub 0) OBJ File: ''
# www.blender.org
o Cube
v 0.094913 0.004680 -1.000000
v 0.094913 0.004680 -0.827254
v -0.071737 0.004680 -0.827254
v -0.071737 0.004680 -1.000000
v 0.094913 2.004680 -0.999999
v 0.094912 2.004680 -0.827253
v -0.071738 2.004680 -0.827254
v -0.071737 2.004680 -1.000000
v 0.094913 1.065140 -1.000000
v 0.094912 1.065140 -0.827254
v -0.071737 1.065140 -0.827254
v -0.071737 1.065140 -1.000000
v 0.094913 1.233235 -1.000000
v 0.094912 1.233235 -0.827254
v -0.071737 1.233235 -0.827254
v -0.071737 1.233235 -1.000000
v 0.094912 1.514620 -0.827254
v -0.071737 1.514620 -0.827254
v 0.094912 1.682715 -0.827254
v -0.071737 1.682715 -0.827254
v 0.094907 1.514619 0.832282
v -0.071743 1.514619 0.832281
v 0.094907 1.682715 0.832282
v -0.071743 1.682715 0.832281
v 0.094912 1.065140 -0.827254
v -0.071737 1.065140 -0.827254
v 0.094912 1.233235 -0.827254
v -0.071737 1.233235 -0.827254
v 0.094907 1.065139 0.832282
v -0.071743 1.065139 0.832281
v 0.094907 1.233234 0.832282
v -0.071743 1.233234 0.832281
v 0.094913 0.004680 0.832326
v 0.094913 0.004680 1.005072
v -0.071737 0.004680 1.005072
v -0.071737 0.004680 0.832326
v 0.094913 2.004680 0.832327
v 0.094912 2.004680 1.005073
v -0.071738 2.004680 1.005072
v -0.071737 2.004680 0.832326
vt 0.340895 0.786107
vt 0.424405 0.868695
vt 0.326676 0.921032
vt 0.981443 0.896875
vt 0.917007 0.836229
vt 0.969802 0.807180
vt 0.738571 0.872767
vt 0.739525 0.818022
vt 0.683990 0.816161
vt 0.418389 0.832885
vt 0.008933 0.648384
vt 0.008109 0.637972
vt 0.004917 0.648625
vt 0.006441 0.637048
vt 0.006428 0.637934
vt 0.004926 0.626713
vt 0.009191 0.626831
vt 0.008095 0.637035
vt 0.982216 0.413944
vt 0.322412 0.347111
vt 0.982216 0.347112
vt 0.982216 0.280854
vt 0.322412 0.214022
vt 0.982216 0.214022
vt 0.743569 0.984710
vt 0.685718 0.987371
vt 0.684346 0.931470
vt 0.743252 0.759176
vt 0.322412 0.147765
vt 0.982216 0.147765
vt 0.740301 0.930367
vt 0.683578 0.873599
vt 0.322412 0.280854
vt 0.330770 0.515780
vt 0.979054 0.450679
vt 0.330770 0.450679
vt 0.330770 0.646545
vt 0.979054 0.581445
vt 0.330770 0.581445
vt 0.979054 0.515780
vt 0.330770 0.712210
vt 0.979054 0.646545
vt 0.166628 0.146145
vt 0.163969 0.023543
vt 0.235613 0.106807
vt 0.161531 0.990270
vt 0.152699 0.867354
vt 0.235613 0.905052
vt 0.086725 0.109716
vt 0.086163 0.905415
vt 0.017998 0.109667
vt 0.302127 0.905052
vt 0.913860 0.867549
vt 0.322412 0.413944
vt 0.325095 0.977647
vt 0.989181 0.949832
vt 0.683837 0.758870
vt 0.979054 0.712210
vt 0.017437 0.905366
vt 0.302127 0.106807
vn 0.0000 -1.0000 -0.0000
vn 0.0000 1.0000 -0.0000
vn -0.0000 -0.0000 1.0000
vn 0.0000 0.0000 -1.0000
vn -0.9476 0.0000 0.3194
vn 1.0000 0.0000 0.0000
vn -1.0000 -0.0000 -0.0000
vn 0.9861 0.0000 0.1662
vn 0.7437 0.0000 -0.6685
s off
f 1/1/1 3/2/1 4/3/1
f 8/4/2 6/5/2 5/6/2
f 6/5/3 15/7/3 14/8/3
f 10/9/3 3/2/3 2/10/3
f 15/11/4 19/12/4 14/13/4
f 15/11/5 18/14/5 20/15/5
f 10/16/3 18/14/3 11/17/3
f 14/13/4 17/18/4 10/16/4
f 19/19/6 21/20/6 17/21/6
f 18/22/7 24/23/7 20/24/7
f 13/25/4 9/26/4 12/27/4
f 14/8/6 10/9/6 13/28/6
f 20/24/2 23/29/2 19/30/2
f 16/31/7 12/27/7 11/32/7
f 17/21/1 22/33/1 18/22/1
f 31/34/2 28/35/2 32/36/2
f 30/37/1 25/38/1 29/39/1
f 27/40/6 29/39/6 25/38/6
f 32/41/7 26/42/7 30/37/7
f 34/43/1 36/44/1 33/45/1
f 40/46/2 38/47/2 37/48/2
f 37/48/6 34/43/6 33/45/6
f 38/47/3 35/49/3 34/43/3
f 39/50/7 36/51/7 35/49/7
f 33/45/4 40/52/4 37/48/4
f 1/1/1 2/10/1 3/2/1
f 8/4/2 7/53/2 6/5/2
f 6/5/3 7/53/3 15/7/3
f 10/9/3 11/32/3 3/2/3
f 15/11/4 20/15/4 19/12/4
f 15/11/8 11/17/8 18/14/8
f 10/16/3 17/18/3 18/14/3
f 14/13/9 19/12/9 17/18/9
f 19/19/6 23/54/6 21/20/6
f 18/22/7 22/33/7 24/23/7
f 9/26/4 1/55/4 4/3/4
f 12/27/4 16/31/4 13/25/4
f 16/31/4 8/4/4 5/56/4
f 9/26/4 4/3/4 12/27/4
f 5/56/4 13/25/4 16/31/4
f 2/10/6 1/1/6 9/57/6
f 13/28/6 5/6/6 6/5/6
f 2/10/6 9/57/6 10/9/6
f 9/57/6 13/28/6 10/9/6
f 6/5/6 14/8/6 13/28/6
f 20/24/2 24/23/2 23/29/2
f 12/27/7 4/3/7 3/2/7
f 11/32/7 15/7/7 16/31/7
f 15/7/7 7/53/7 8/4/7
f 12/27/7 3/2/7 11/32/7
f 8/4/7 16/31/7 15/7/7
f 17/21/1 21/20/1 22/33/1
f 31/34/2 27/40/2 28/35/2
f 30/37/1 26/42/1 25/38/1
f 27/40/6 31/34/6 29/39/6
f 32/41/7 28/58/7 26/42/7
f 34/43/1 35/49/1 36/44/1
f 40/46/2 39/50/2 38/47/2
f 37/48/6 38/47/6 34/43/6
f 38/47/3 39/50/3 35/49/3
f 39/50/7 40/59/7 36/51/7
f 33/45/4 36/60/4 40/52/4
